<svg xmlns="http://www.w3.org/2000/svg" width="20" height="20" viewBox="0 0 20 20">
  <g id="Group_826" data-name="Group 826" transform="translate(-1654.998 -316.5)">
    <path id="Union_61" data-name="Union 61" d="M19591.572,8520.572v-5.145h-5.145a.428.428,0,0,1,0-.856h5.145v-5.145a.428.428,0,0,1,.855,0v5.145h5.146a.428.428,0,0,1,0,.856h-5.146v5.145a.428.428,0,0,1-.855,0Z" transform="translate(-17927 -8188.5)" fill="#41b883"/>
    <path id="Subtraction_32" data-name="Subtraction 32" d="M19596,8529a10,10,0,1,1,10-10A10.014,10.014,0,0,1,19596,8529Zm0-19.092a9.09,9.09,0,1,0,9.09,9.09A9.1,9.1,0,0,0,19596,8509.908Z" transform="translate(-17931 -8192.5)" fill="#41b883"/>
  </g>
</svg>
