<svg id="Group_663" data-name="Group 663" xmlns="http://www.w3.org/2000/svg" width="20.203" height="20.203" viewBox="0 0 20.203 20.203">
  <g id="Group_662" data-name="Group 662">
    <path id="Path_1605" data-name="Path 1605" d="M20.069,3.808,16.4.135A.459.459,0,0,0,16.071,0H1.837A1.839,1.839,0,0,0,0,1.837v16.53A1.839,1.839,0,0,0,1.837,20.2h16.53A1.839,1.839,0,0,0,20.2,18.366V4.132A.459.459,0,0,0,20.069,3.808ZM4.592.918h10.1v5.51a.919.919,0,0,1-.918.918H5.51a.919.919,0,0,1-.918-.918ZM16.53,19.285H3.673V11.02H16.53Zm2.755-.918a.919.919,0,0,1-.918.918h-.918V10.561a.459.459,0,0,0-.459-.459H3.214a.459.459,0,0,0-.459.459v8.724H1.837a.919.919,0,0,1-.918-.918V1.837A.919.919,0,0,1,1.837.918H3.673v5.51A1.839,1.839,0,0,0,5.51,8.265h8.265a1.839,1.839,0,0,0,1.837-1.837V.918h.269l3.4,3.4Z" fill="#41b883"/>
    <path id="Path_1606" data-name="Path 1606" d="M256.459,47.258H258.3a.459.459,0,0,0,.459-.459V43.125a.459.459,0,0,0-.459-.459h-1.837a.459.459,0,0,0-.459.459V46.8A.459.459,0,0,0,256.459,47.258Zm.459-3.673h.918v2.755h-.918Z" transform="translate(-244.98 -40.829)" fill="#41b883"/>
  </g>
</svg>
