<svg id="next_1_" data-name="next (1)" xmlns="http://www.w3.org/2000/svg" width="23" height="16.961" viewBox="0 0 23 16.961">
  <path id="Path_1699" data-name="Path 1699" d="M20.192,73.171A12.272,12.272,0,0,1,23,80.583a.569.569,0,0,1-.428.555.517.517,0,0,1-.146.019.586.586,0,0,1-.5-.292c-2.93-5.164-8.457-5.437-12.064-5.451v3.739a.576.576,0,0,1-.941.447L.207,72.395A.574.574,0,0,1,0,71.952a.557.557,0,0,1,.212-.442l8.7-7.182a.576.576,0,0,1,.941.447v3.753C15.394,68.731,18.527,71.143,20.192,73.171ZM9.275,69.662a.576.576,0,0,1-.569-.579v-3.09L1.482,71.952l7.225,5.978V74.84a.585.585,0,0,1,.169-.409.576.576,0,0,1,.409-.169c3.354,0,8.687,0,12.257,4.073C20.644,74.789,17.553,69.742,9.275,69.662Z" transform="translate(0 -64.196)" fill="#41b883"/>
</svg>
