<svg xmlns="http://www.w3.org/2000/svg" width="23" height="16.961" viewBox="0 0 23 16.961">
  <g id="next_1_" data-name="next (1)" transform="translate(0 -64.196)">
    <path id="Path_1699" data-name="Path 1699" d="M2.808,73.171A12.272,12.272,0,0,0,0,80.583a.569.569,0,0,0,.428.555.517.517,0,0,0,.146.019.586.586,0,0,0,.5-.292c2.93-5.164,8.457-5.437,12.064-5.451v3.739a.576.576,0,0,0,.941.447l8.711-7.206A.574.574,0,0,0,23,71.952a.557.557,0,0,0-.212-.442l-8.7-7.182a.576.576,0,0,0-.941.447v3.753C7.606,68.731,4.473,71.143,2.808,73.171Zm10.917-3.509a.576.576,0,0,0,.569-.579v-3.09l7.225,5.959-7.225,5.978V74.84a.585.585,0,0,0-.169-.409.576.576,0,0,0-.409-.169c-3.354,0-8.687,0-12.257,4.073C2.356,74.789,5.447,69.742,13.725,69.662Z" transform="translate(0 0)" fill="#41b883"/>
  </g>
</svg>
